<?xml version="1.0" standalone="no"?>
<!DOCTYPE svg PUBLIC "-//W3C//DTD SVG 20010904//EN"
 "http://www.w3.org/TR/2001/REC-SVG-20010904/DTD/svg10.dtd">
<svg version="1.0" xmlns="http://www.w3.org/2000/svg"
 width="32.000000pt" height="32.000000pt" viewBox="0 0 32.000000 32.000000"
 preserveAspectRatio="xMidYMid meet">

<g transform="translate(0.000000,32.000000) scale(0.100000,-0.100000)"
fill="#000000" stroke="none">
<path d="M52 248 c-8 -8 -9 -15 -1 -25 8 -9 40 -13 108 -13 101 0 131 10 110
37 -15 17 -200 18 -217 1z m213 -13 c0 -11 -178 -20 -202 -10 -8 2 -11 10 -8
15 9 14 210 9 210 -5z"/>
<path d="M52 98 c-8 -8 -9 -15 -1 -25 8 -9 40 -13 108 -13 101 0 131 10 110
37 -15 17 -200 18 -217 1z m213 -13 c0 -11 -178 -20 -202 -10 -8 2 -11 10 -8
15 9 14 210 9 210 -5z"/>
</g>
</svg>
